<svg width="89" height="89" viewBox="0 0 89 89" fill="none" xmlns="http://www.w3.org/2000/svg">
<path class="rocket" fill-rule="evenodd" clip-rule="evenodd" d="M76.2983 61.8727C77.3006 61.8727 77.8025 63.0845 77.0938 63.7932L52.7163 88.1688C52.0076 88.8775 50.7957 88.3756 50.7957 87.3734L50.7957 62.9977C50.7957 62.3764 51.2994 61.8727 51.9208 61.8727L76.2983 61.8727ZM1.12732 38.9036C0.12502 38.9036 -0.376933 37.6918 0.331807 36.9832L24.7093 12.6075C25.418 11.8988 26.6298 12.4007 26.6298 13.4029L26.6298 37.7786C26.6298 38.3999 26.1261 38.9036 25.5048 38.9036L1.12732 38.9036Z" fill="url(#paint0_linear_20_3)"/>
<path class="rocket" d="M54.1934 34.9029L86.8489 34.9029C87.4702 34.9029 87.9739 34.3993 87.9739 33.778L87.9739 1.12488C87.9739 0.503582 87.4702 -8.01527e-05 86.8489 -8.0207e-05L54.1934 -8.30618e-05C53.5721 -8.31162e-05 53.0684 0.503579 53.0684 1.12487L53.0684 33.778C53.0684 34.3993 53.5721 34.9029 54.1934 34.9029Z" fill="url(#paint1_linear_20_3)"/>
<path class="rocket" d="M78.3818 56.248L33.3801 56.248C32.7588 56.248 32.2551 55.7443 32.2551 55.123L32.2551 10.1246C32.2551 9.50333 32.7588 8.99967 33.3801 8.99967L46.3181 8.99967C46.9394 8.99967 47.4431 9.50333 47.4431 10.1246L47.4431 39.3736C47.4431 39.9949 47.9468 40.4986 48.5682 40.4986L78.3818 40.4986C79.0031 40.4986 79.5068 41.0022 79.5068 41.6235L79.5068 55.123C79.5068 55.7443 79.0031 56.248 78.3818 56.248Z" fill="url(#paint2_linear_20_3)"/>
<defs>
<linearGradient id="paint0_linear_20_3" x1="77.5035" y1="12.0444" x2="13.9516" y2="74.968" gradientUnits="userSpaceOnUse">
<stop stop-color="#4D29B4"/>
<stop offset="1" stop-color="#836FFF"/>
</linearGradient>
<linearGradient id="paint1_linear_20_3" x1="50.0107" y1="36.657" x2="93.9964" y2="-6.54887" gradientUnits="userSpaceOnUse">
<stop stop-color="#70FFE5"/>
<stop offset="1" stop-color="#6295E1"/>
</linearGradient>
<linearGradient id="paint2_linear_20_3" x1="73.8377" y1="19.3759" x2="32.4705" y2="58.6544" gradientUnits="userSpaceOnUse">
<stop offset="0.00747511" stop-color="#654FEC"/>
<stop offset="1" stop-color="#71B2FF"/>
</linearGradient>
</defs>
</svg>
